<svg width="374.99" height="270.98" version="1.1" viewBox="0 0 374.99 270.98" xml:space="preserve" xmlns="http://www.w3.org/2000/svg"><g transform="matrix(1.3333 0 0 -1.3333 -488.21 406.23)"><g transform="scale(.1)" fill="#fff"><path d="m4161.9 2631c2.24-2.22 2.98-4.45 1.49-7.42-44.54-63.84-115.79-124.71-221.2-124.71-95.01 0-148.47 28.21-194.48 69.78-54.93 48.98-80.17 135.09-80.17 200.42 0 72.75 23.75 142.52 75.72 198.93 40.07 43.05 103.92 78.69 192.99 78.69 68.29 0 123.22-20.79 149.94-35.64 10.39-5.94 13.37-5.94 14.84 0l5.95 19.3c1.47 4.47 2.97 4.47 11.87 4.47 8.91 0 10.4-1.5 10.4-11.89 0-13.35 14.84-132.13 17.81-154.4 0.74-4.44 0-6.68-2.97-7.42l-14.1-4.45c-3.71-1.49-5.94 1.48-8.17 7.43-8.9 26.71-26.71 63.82-57.9 96.48-32.66 31.19-71.26 54.94-129.16 54.94-118.77 0-167.76-106.89-167.76-213.78 0-46.03 13.37-133.62 68.3-193 48.98-51.96 92.04-57.9 127.68-57.9 81.65 0 146.23 40.82 177.4 86.11 3.71 5.19 6.68 7.42 8.91 5.19l12.61-11.13"/><path d="m4740.8 2662.9c1.49-1.49 1.49-2.97 1.49-7.42-2.97-4.45-32.65-127.68-37.11-147.73-19.3 0.75-233.08 2.23-308.81 2.23-66.79 0-93.51-2.23-102.43-2.23-5.95 0-5.95 1.5-5.95 6.69v17.07c0 4.46 0 5.94 4.47 5.94h29.69c26.72 0 31.17 10.39 31.17 20.04 0 13.37 2.98 198.93 2.98 243.48v41.57c0 47.5-1.49 126.19-2.98 138.81-1.48 19.29-4.45 26.71-23.74 26.71h-31.18c-4.46 0-5.94 4.47-5.94 6.69v17.07c0 4.46 1.48 5.93 5.94 5.93 7.42 0 34.15-2.21 102.43-2.21 80.16 0 111.35 2.21 117.28 2.21 5.94 0 7.42-2.95 7.42-6.66v-17.08c0-2.98-1.48-5.95-7.42-5.95h-40.09c-22.26 0-25.22-7.42-25.22-27.45 0-10.4-2.97-121.75-2.97-173.71v-63.83c0-13.36 0-173.71 2.97-205.62h41.56c41.56 0 95.02 0 124.71 3.72 41.56 5.93 89.07 95.01 99.46 123.21 2.97 2.97 4.45 4.45 8.92 2.97l13.35-4.45"/><path d="m4891.5 2971c0 25.24-5.93 37.11-25.23 37.11h-34.14c-4.46 0-5.95 1.5-5.95 6.69v17.07c0 4.46 1.49 5.93 7.44 5.93 7.42 0 43.04-2.21 114.31-2.21 62.35 0 97.99 2.21 106.88 2.21 4.46 0 5.95-1.47 5.95-5.19v-18.55c0-4.45-1.49-5.95-5.95-5.95h-31.16c-22.28 0-35.63-13.35-36.38-28.95-0.75-8.9-2.23-53.43-2.23-96.49v-92.04c0-37.11 0.74-89.82 2.23-113.57 2.22-34.16 8.17-68.3 25.98-92.05 25.24-34.15 65.33-46.03 100.95-46.03 34.15 0 75.72 13.37 99.48 35.64 28.19 28.2 43.04 71.25 43.04 125.44v133.63c0 59.38-5.93 124.7-8.17 141.76-2.22 19.31-14.1 32.66-30.43 32.66h-26.73c-4.45 0-5.92 2.24-5.92 5.21v18.55c0 4.46 1.47 5.93 5.92 5.93 7.43 0 41.59-2.21 90.57-2.21 46.03 0 69.78 2.21 75.71 2.21 6.69 0 7.43-2.21 7.43-5.93v-17.07c0-4.45-0.74-6.69-4.45-6.69h-26.74c-26.71 0-29.68-20.77-31.17-28.95-1.48-8.9-1.48-112.83-1.48-122.47 0-10.39-1.49-139.55-4.46-169.24-4.45-60.87-22.26-106.9-62.35-142.52-31.17-28.21-78.67-46.03-135.1-46.03-35.63 0-78.68 5.94-106.88 17.82-43.06 17.82-72.76 51.96-87.6 99.46-10.39 32.67-13.37 81.65-13.37 178.9v175.92"/><path d="m5632.2 2630.3c0-69.78 16.32-98.73 63.83-98.73 57.9 0 111.36 27.46 111.36 118.02 0 60.88-29.7 99.47-71.27 115.81-28.2 11.87-59.39 13.36-84.62 13.36h-19.3v-46.03zm0 172.21c11.88-0.74 22.27-0.74 34.14-0.74 32.67 0 62.36 8.16 78.7 21.53 28.21 22.27 38.59 54.93 38.59 87.59 0 28.2-8.91 57.9-32.67 75.71-26.72 19.31-62.35 25.99-84.62 25.99-7.42 0-16.32 0-22.26-1.5-4.46-1.47-8.91-5.94-9.64-11.87-0.76-14.1-2.24-77.94-2.24-140.3zm-90.56 31.19c0 26.71-1.48 117.28-2.22 129.89-2.24 43.06-14.1 44.53-42.31 44.53h-23.76c-4.46 0-5.94 1.5-5.94 5.95v17.08c0 4.45 1.48 6.66 5.94 6.66 10.39 0 46.02-2.95 108.37-2.21 23.76 0 68.3 2.21 108.38 2.21 56.41 0 103.92-5.19 130.65-20.03 41.57-22.27 56.41-56.42 56.41-100.96 0-59.38-31.19-95.01-100.95-121v-3.71c84.62-22.26 133.61-66.8 133.61-145.49 0-40.08-22.27-93.52-57.9-112.82-31.17-17.81-78.67-25.99-161.82-25.99-29.68 0-78.69 2.23-108.38 2.23-57.9 0-89.07-2.23-104.66-2.23-2.96 0-5.2 2.23-5.2 5.94v18.56c0 3.72 2.24 5.2 5.2 5.2h31.92c22.27 0 27.47 8.91 29.69 31.91 1.49 17.82 2.97 115.81 2.97 176.68v87.6"/><path d="m3994.1 2001.6c-7.42 21.52-57.9 190.76-62.36 205.61-2.96 8.91-4.45 13.37-7.42 13.37-4.45 0-7.42-2.98-9.66-9.66-2.96-9.64-69.77-192.25-74.96-209.32zm-164.79-29.7c-5.94-17.08-42.32-123.22-46.03-143.26-1.48-5.95-1.48-11.88-1.48-15.59 0-9.64 11.88-17.81 26.72-17.81h31.18c5.93 0 7.43-1.49 7.43-3.71v-18.57c0-4.45-1.5-7.42-5.95-7.42-10.39 0-41.56 2.23-93.52 2.23-54.93 0-71.27-2.23-81.66-2.23-4.45 0-4.45 4.46-4.45 9.65v14.11c0 4.45 1.47 5.94 4.45 5.94h22.27c20.79 0 34.15 10.38 47.5 33.4 7.43 13.35 60.88 146.97 83.14 209.33 5.2 14.84 65.32 175.18 72.75 194.48 1.48 7.42 5.94 20.79 1.48 25.23-2.22 2.24-4.45 6.69-4.45 8.92 0 2.96 1.49 5.93 7.42 7.43 23.76 5.93 64.59 28.19 73.49 37.11 4.46 4.45 7.42 7.42 11.13 7.42 4.46 0 7.42-8.92 8.92-13.37 13.34-46.03 71.25-212.29 84.61-259.8 17.83-57.9 65.34-195.98 75.73-216.01 13.35-25.24 32.66-34.14 47.51-34.14h23.74c4.45 0 5.94-1.49 5.94-5.2v-15.59c0-4.45-1.49-8.91-7.42-8.91-13.37 0-28.21 2.23-109.86 2.23-62.35 0-87.59-2.23-103.93-2.23-5.92 0-7.42 4.46-7.42 8.91v14.85c0 4.45 1.5 5.94 5.94 5.94h19.3c20.79 0 26.71 7.43 22.26 27.45-5.93 26.72-35.62 121.74-44.53 149.21h-172.21"/><path d="m4780.9 1920.7c1.49-1.49 1.49-2.97 1.49-7.42-2.98-4.45-32.67-127.67-37.12-147.72-19.31 0.75-233.09 2.23-308.8 2.23-66.8 0-93.52-2.23-102.44-2.23-5.94 0-5.94 1.49-5.94 6.68v17.08c0 4.45 0 5.94 4.47 5.94h29.68c26.72 0 31.18 10.38 31.18 20.03 0 13.37 2.96 198.94 2.96 243.49v41.56c0 47.51-1.47 126.2-2.96 138.81-1.49 19.3-4.46 26.72-23.75 26.72h-31.19c-4.45 0-5.92 4.46-5.92 6.68v17.08c0 4.45 1.47 5.93 5.92 5.93 7.43 0 34.16-2.22 102.44-2.22 80.17 0 111.35 2.22 117.28 2.22 5.95 0 7.42-2.96 7.42-6.67v-17.08c0-2.97-1.47-5.94-7.42-5.94h-40.08c-22.27 0-25.22-7.42-25.22-27.46 0-10.39-2.98-121.75-2.98-173.7v-63.84c0-13.36 0-173.7 2.98-205.61h41.56c41.56 0 95.01 0 124.7 3.71 41.56 5.93 89.07 95.01 99.47 123.22 2.97 2.97 4.44 4.44 8.92 2.97l13.35-4.46"/><path d="m5036.2 2024.6c13.37-4.45 34.14-5.93 53.45-5.93 32.65 0 71.25 25.24 89.07 50.46 14.84 22.29 17.82 50.48 17.82 77.22 0 100.94-81.67 123.96-117.29 123.96-13.36 0-31.18 0.74-43.05-5.2zm-93.54 89.09c0 48.98 0 127.67-0.74 135.84-1.47 12.61-9.65 16.32-25.98 16.32h-38.6c-2.96 0-4.45 1.49-4.45 5.2v18.56c0 4.45 1.49 5.93 4.45 5.93 8.92 0 35.64-2.22 109.87-2.22 13.35 0 56.41 2.22 81.65 2.22 89.07 0 132.12-8.16 175.18-37.86 34.14-25.23 56.42-66.8 56.42-112.82 0-92.05-71.26-149.95-197.46-149.95-25.24 0-47.51 0-66.8 2.97v-32.66c0-35.63 0-136.58 0.74-146.24 2.23-16.31 9.65-23.74 23.01-23.74h41.57c5.93 0 5.93-2.97 5.93-5.2v-17.08c0-4.45 0-7.42-5.93-7.42-10.39 0-34.15 2.23-114.31 2.23-65.32 0-95.02-2.23-102.45-2.23-5.93 0-5.93 2.97-5.93 5.2v18.56c0 4.45 0 5.94 4.45 5.94h23.77c25.22 0 31.16 2.96 33.4 23.01 0.74 7.42 2.21 123.22 2.21 209.32v86.12"/><path d="m5578.8 2008.3c0-7.43 1.48-178.15 1.48-186.32 0-23.76 11.88-26.72 29.69-26.72h31.18c2.98 0 5.93-1.49 5.93-5.2v-18.56c0-4.45-2.95-5.94-7.42-5.94-8.9 0-38.59 2.23-108.36 2.23-74.25 0-106.91-2.23-114.33-2.23-4.45 0-5.93 1.49-5.93 5.2v20.04c0 2.97 1.48 4.46 5.93 4.46h29.69c14.86 0 31.18 1.48 34.15 21.52 1.48 10.39 2.98 170.73 2.98 210.81v51.96c0 17.82-1.5 151.44-2.24 161.08-2.23 17.82-9.65 25.24-30.43 25.24h-38.6c-4.46 0-5.93 1.49-5.93 5.2v19.3c0 3.71 1.47 5.19 4.45 5.19 8.9 0 47.5-2.22 120.26-2.22 71.25 0 95.01 2.22 105.39 2.22 4.46 0 5.94-2.96 5.94-6.67v-17.08c0-4.45-2.97-5.94-5.94-5.94h-28.2c-16.33 0-28.21-5.93-28.21-20.04 0-7.42-1.48-170.73-1.48-179.63v-57.9"/><path d="m5879.4 2103.3c0-126.19 5.93-230.11 7.42-253.12 1.49-37.12 10.4-54.93 37.12-54.93h19.29c5.95 0 5.95-2.97 5.95-6.69v-17.07c0-4.45 0-5.94-5.95-5.94-7.42 0-51.95 2.23-80.17 2.23-19.29 0-69.77-2.23-77.19-2.23-2.97 0-4.46 1.49-4.46 6.68v18.56c0 1.49 1.49 4.46 4.46 4.46h25.24c19.29 0 29.69 16.32 33.4 61.6 0.74 13.36 5.2 117.28 5.2 236.06v94.27c0 44.54-25.24 78.68-57.9 78.68h-23.76c-2.97 0.75-4.45 2.23-4.45 5.2v20.04c0 2.97 1.48 4.45 4.45 4.45 3.72 0 9.65-0.74 23.02-1.48 13.35-0.74 33.4-0.74 66.07-0.74 12.6 0 23.75 0.74 32.66 1.48 9.64 0 16.32 0.74 20.77 0.74 8.92 0 13.37-2.22 17.82-6.67 7.42-7.42 152.92-190.03 167.76-210.82 10.39-11.87 126.2-155.88 138.08-170.73h2.97v77.2c0 65.32 0 102.43-1.5 139.55-1.47 28.21-4.45 100.95-8.16 113.58-5.19 17.8-21.53 28.2-39.35 28.2h-23.74c-4.45 0-4.45 2.97-4.45 6.68v17.08c0 4.45 0 5.93 5.93 5.93 8.91 0 32.66-2.22 83.14-2.22 44.53 0 62.35 2.22 71.25 2.22 5.95 0 7.42-2.96 7.42-5.19v-17.08c0-4.45-1.47-7.42-4.45-7.42h-20.77c-14.87 0-22.29-11.88-24.5-39.33-3.72-50.48-11.14-175.19-11.14-250.91v-195.97c0-10.39 0-20.77-8.91-20.77-10.38 0-19.3 5.92-25.24 11.87-5.94 7.42-46.01 53.44-92.05 108.37-51.95 63.85-109.85 133.62-118.76 145.49-10.39 10.39-129.17 158.86-138.06 169.26h-4.46v-90.57"/><path d="m3830.8 1145.8c0-69.77 16.34-98.73 63.85-98.73 57.9 0 111.33 27.46 111.33 118.03 0 60.87-29.69 99.46-71.26 115.8-28.21 11.87-59.37 13.37-84.62 13.37h-19.3v-46.04zm0 172.21c11.88-0.73 22.27-0.73 34.15-0.73 32.66 0 62.35 8.15 78.68 21.52 28.21 22.26 38.6 54.93 38.6 87.59 0 28.2-8.91 57.91-32.66 75.71-26.72 19.31-62.36 25.99-84.62 25.99-7.42 0-16.34 0-22.27-1.5-4.46-1.47-8.91-5.94-9.66-11.86-0.73-14.11-2.22-77.94-2.22-140.31zm-90.55 31.18c0 26.72-1.49 117.28-2.24 129.9-2.23 43.06-14.11 44.53-42.31 44.53h-23.75c-4.45 0-5.95 1.5-5.95 5.95v17.07c0 4.45 1.5 6.67 5.95 6.67 10.39 0 46.03-2.95 108.38-2.22 23.75 0 68.28 2.22 108.37 2.22 56.42 0 103.92-5.19 130.64-20.03 41.57-22.26 56.42-56.42 56.42-100.96 0-59.38-31.17-95.02-100.95-120.99v-3.71c84.62-22.27 133.6-66.81 133.6-145.5 0-40.08-22.26-93.52-57.89-112.81-31.18-17.83-78.68-26-161.82-26-29.69 0-78.68 2.24-108.37 2.24-57.9 0-89.08-2.24-104.67-2.24-2.97 0-5.18 2.24-5.18 5.95v18.55c0 3.71 2.21 5.21 5.18 5.21h31.92c22.27 0 27.47 8.89 29.69 31.9 1.49 17.82 2.98 115.81 2.98 176.68v87.59"/><path d="m4415 1240.8c0.73-40.08 2.22-112.83 2.22-126.19 0-38.59 13.37-53.44 29.7-57.89 11.87-2.97 29.69-5.95 57.9-5.95 13.35 0 47.5 1.49 62.36 2.98 13.36 1.47 41.56 8.9 60.86 25.23 13.35 11.88 54.94 60.86 69.03 78.69 2.97 3.71 5.2 4.44 8.17 2.96l11.88-7.42c2.22-1.48 2.97-3.71 1.47-7.42l-35.61-111.36c-2.24-6.67-7.43-11.13-16.34-11.13-3.71 0-20.04 0.75-66.07 1.49-46.76 0-123.22 0.75-247.19 0.75-27.45 0-47.5-0.75-63.09-0.75-14.84-0.74-25.24-1.49-31.92-1.49-4.46 0-5.93 1.49-5.93 5.95v17.81c0 4.45 1.47 5.95 7.42 5.95h25.24c34.14 0 37.11 4.45 37.11 31.9v249.43c0 60.86-1.49 152.9-2.97 163.3-2.97 20.05-10.39 25.97-32.66 25.97h-28.21c-2.96 0-4.46 1.5-4.46 5.21v19.29c0 3.72 0.75 5.19 4.46 5.19 16.34 0 43.05-2.95 103.92-2.22h20.79c32.65 0 203.38 1.49 236.05 1.49 11.87 0 25.98 0.73 29.69 0.73s5.2-1.47 5.94-4.44c2.97-9.65 31.18-110.61 34.14-118.03 1.5-4.45 0.75-6.68-2.21-8.16l-13.37-5.94c-2.23-0.74-4.45 0-6.68 3.71-2.98 4.45-63.84 72.74-81.65 83.13-15.59 8.91-35.64 18.57-56.43 19.3l-112.83 2.98-1.47-214.53c22.26 0 75.72 1.49 84.62 3.71 16.33 2.97 25.24 8.92 34.16 26.73 4.44 9.65 11.86 28.2 11.86 41.56 0 4.45 2.98 5.95 5.93 5.95l19.31-1.5c2.97 0 5.19-1.47 4.46-5.93-1.49-11.88-1.49-60.86-1.49-80.16 0-29.71 2.96-65.32 4.46-81.67 0-3.71-1.5-4.44-5.95-5.19l-16.32-2.96c-2.98-0.75-4.47 0.73-5.95 5.18-2.97 11.89-8.16 28.21-11.87 37.13-6.68 14.84-20.79 25.22-37.11 26.72-26.74 2.97-62.35 4.45-86.11 4.45l0.74-44.54"/><path d="m5274.5 1178.4c1.48-1.5 1.48-2.97 1.48-7.42-2.97-4.45-32.66-127.68-37.12-147.73-19.29 0.75-233.08 2.24-308.78 2.24-66.82 0-93.54-2.24-102.44-2.24-5.94 0-5.94 1.49-5.94 6.69v17.07c0 4.45 0 5.95 4.45 5.95h29.69c26.74 0 31.18 10.38 31.18 20.04 0 13.36 2.98 198.92 2.98 243.47v41.57c0 47.51-1.5 126.2-2.98 138.8-1.5 19.3-4.44 26.72-23.76 26.72h-31.17c-4.45 0-5.94 4.47-5.94 6.68v17.08c0 4.46 1.49 5.93 5.94 5.93 7.43 0 34.14-2.22 102.44-2.22 80.16 0 111.34 2.22 117.28 2.22s7.43-2.95 7.43-6.67v-17.07c0-2.98-1.49-5.95-7.43-5.95h-40.08c-22.27 0-25.25-7.42-25.25-27.46 0-10.39-2.97-121.74-2.97-173.7v-63.83c0-13.37 0-173.71 2.97-205.61h41.57c41.58 0 95.01 0 124.72 3.71 41.56 5.93 89.07 95.01 99.46 123.21 2.97 2.97 4.46 4.45 8.91 2.97l13.36-4.45"/><path d="m5822.3 1099c0-10.4 2.96-17.82 2.96-23.75 0-5.94-4.45-8.91-11.87-11.88-60.86-31.17-121.73-48.99-210.82-48.99-72.74 0-163.3 25.24-213.77 86.12-46.04 50.46-68.3 114.3-68.3 201.89 0 68.28 29.68 139.55 84.61 187.06 53.46 47.51 121.75 72.75 210.83 72.75 71.26 0 127.67-22.27 151.43-40.08 8.91-6.69 13.35-4.45 17.8 1.47l8.92 11.89c3.71 5.19 5.95 7.42 10.39 7.42 7.43 0 8.91-4.46 8.91-10.39l7.42-148.47c0-5.94 0-9.65-2.97-10.39l-17.8-2.98c-4.47-0.73-5.95 1.5-7.44 5.95-10.39 29.69-29.69 71.27-59.38 102.44-25.24 26.72-66.81 51.95-123.21 51.95-46.04 0-86.12-11.87-126.2-57.9-35.64-40.06-60.87-102.44-60.87-167.74 0-87.6 23.76-163.31 66.81-206.37 35.62-34.14 71.25-50.48 118.76-50.48s75.72 5.94 100.96 19.31c16.33 8.91 17.81 29.69 17.81 68.28v54.19c0 26.72-7.42 34.14-26.73 34.14h-31.17c-4.44 0-5.94 2.98-5.94 6.69v17.07c0 4.46 1.5 5.95 4.45 5.95 8.91 0 44.55-2.24 105.41-2.24 62.35 0 87.6 2.24 95.02 2.24 5.94 0 7.42-1.49 7.42-5.21v-18.55c0-4.45-1.48-5.95-5.93-5.95h-25.24c-13.37 0-22.27-5.93-22.27-27.45v-97.99"/><path d="m6169.6 1240.8c0.74-40.08 2.23-112.83 2.23-126.19 0-38.59 13.37-53.44 29.69-57.89 11.88-2.97 29.69-5.95 57.9-5.95 13.36 0 47.51 1.49 62.35 2.98 13.37 1.47 41.57 8.9 60.88 25.23 13.35 11.88 54.92 60.86 69.02 78.69 2.98 3.71 5.2 4.44 8.18 2.96l11.88-7.42c2.22-1.48 2.96-3.71 1.47-7.42l-35.63-111.36c-2.22-6.67-7.42-11.13-16.33-11.13-3.71 0-20.03 0.75-66.06 1.49-46.77 0-123.23 0.75-247.2 0.75-27.46 0-47.5-0.75-63.08-0.75-14.85-0.74-25.25-1.49-31.92-1.49-4.46 0-5.93 1.49-5.93 5.95v17.81c0 4.45 1.47 5.95 7.42 5.95h25.23c34.14 0 37.11 4.45 37.11 31.9v249.43c0 60.86-1.48 152.9-2.97 163.3-2.96 20.05-10.39 25.97-32.65 25.97h-28.21c-2.96 0-4.46 1.5-4.46 5.21v19.29c0 3.72 0.74 5.19 4.46 5.19 16.33 0 43.05-2.95 103.92-2.22h20.79c32.65 0 203.38 1.49 236.05 1.49 11.87 0 25.97 0.73 29.68 0.73 3.72 0 5.21-1.47 5.95-4.44 2.97-9.65 31.16-110.61 34.14-118.03 1.5-4.45 0.73-6.68-2.21-8.16l-13.37-5.94c-2.24-0.74-4.46 0-6.69 3.71-2.97 4.45-63.83 72.74-81.64 83.13-15.59 8.91-35.64 18.57-56.43 19.3l-112.83 2.98-1.48-214.53c22.27 0 75.72 1.49 84.62 3.71 16.34 2.97 25.24 8.92 34.15 26.73 4.46 9.65 11.88 28.2 11.88 41.56 0 4.45 2.97 5.95 5.93 5.95l19.31-1.5c2.97 0 5.19-1.47 4.45-5.93-1.48-11.88-1.48-60.86-1.48-80.16 0-29.71 2.96-65.32 4.45-81.67 0-3.71-1.49-4.44-5.94-5.19l-16.33-2.96c-2.97-0.75-4.46 0.73-5.94 5.18-2.98 11.89-8.16 28.21-11.87 37.13-6.68 14.84-20.79 25.22-37.11 26.72-26.74 2.97-62.36 4.45-86.12 4.45l0.74-44.54"/></g></g></svg>
